# xmcd
#
# Track frame offsets: 
#        150
#        18635
#        31880
#        43518
#        60091
#        76133
#        94373
#        115051
#        132508
#        153281
#        173996
#        186104
#
# Disc length: 2690 seconds
#
# Revision: 0
# Processed by: cddbd v1.5.2PL0 Copyright (c) Steve Scherf et al.
# Submitted via: ExactAudioCopy v0.95b4
#
DISCID=900a800c
DTITLE=Bockhill Special - One Night Stand
DYEAR=1998
DGENRE=Blues
TTITLE0=Mr. Mailman
TTITLE1=Cruel Jealous Fool
TTITLE2=One Mint Julep
TTITLE3=Rainy Autumn Sunday
TTITLE4=Party Fly
TTITLE5=Love Attack
TTITLE6=Good Love Is Hard to Find
TTITLE7=It Ain't What You Do
TTITLE8=Never More
TTITLE9=Don't Let the Sun Catch You Cryin'
TTITLE10=Five Months, Two Weeks, Two Days
TTITLE11=Blues for Archie
EXTD=
EXTT0=
EXTT1=
EXTT2=
EXTT3=
EXTT4=
EXTT5=
EXTT6=
EXTT7=
EXTT8=
EXTT9=
EXTT10=
EXTT11=
PLAYORDER=
